<?xml version="1.0" encoding="UTF-8"?>
<svg width="95px" height="108px" viewBox="0 0 95 108" version="1.1" xmlns="http://www.w3.org/2000/svg" xmlns:xlink="http://www.w3.org/1999/xlink">
    <!-- Generator: Sketch 42 (36781) - http://www.bohemiancoding.com/sketch -->
    <title>TRIANGLE</title>
    <desc>Created with Sketch.</desc>
    <defs></defs>
    <g id="Page-1" stroke="none" stroke-width="1" fill="none" fill-rule="evenodd">
        <g id="Group" transform="translate(250.000000, 71.328458) scale(-1, 1) rotate(-180.000000) translate(-250.000000, -71.328458) translate(0.000000, -0.171542)">
            <g id="TRIANGLE" transform="translate(0.000000, 34.000000)">
                <path d="M27.826087,23.826087 C27.826087,20.7826087 27.3913043,17.3043478 26.8695652,16.173913 C26.2608696,14.8695652 21.7391304,11.6521739 14.4347826,7.47826087 C8.08695652,3.82608696 2.60869565,0.782608696 2.34782609,0.782608696 C1.47826087,0.782608696 1.65217391,13.1304348 2.43478261,14.4347826 C3.04347826,15.3913043 25.9130435,29.2173913 27.2173913,29.3913043 C27.5652174,29.4782609 27.826087,26.9565217 27.826087,23.826087 Z" id="Shape" fill="#FFF"></path>
                <path d="M83.0434783,61.9130435 C89.4782609,58.173913 94.7826087,54.8695652 94.7826087,54.5217391 C94.7826087,53.3913043 85.3913043,48.6086957 83.0434783,48.6086957 C80,48.6086957 57.0434783,61.6521739 58.173913,62.7826087 C60,64.6086957 67.5652174,68.5217391 69.3043478,68.5217391 C70.4347826,68.6086957 76.6086957,65.5652174 83.0434783,61.9130435 Z" id="Shape" fill="#fff"></path>
                <path d="M53.9130435,62.6086957 C74.0869565,50.9565217 77.826087,48.4347826 78.0869565,46.6086957 C78.3478261,44.6956522 76.3478261,43.3043478 54.8695652,30.8695652 C41.9130435,23.3913043 30.7826087,17.0434783 30,16.7826087 C28.8695652,16.3478261 28.6956522,17.3043478 28.6956522,22.6956522 C28.6956522,30.6086957 28.3478261,30.2608696 44.5217391,39.4782609 C54.8695652,45.3913043 56.2608696,46.4347826 54.9565217,47.3043478 C54.173913,47.9130435 48.7826087,51.0434783 43.0434783,54.2608696 C28.5217391,62.5217391 28.6956522,62.3478261 28.6956522,70.0869565 C28.6956522,73.5652174 28.9565217,76.4347826 29.3913043,76.4347826 C29.7391304,76.4347826 40.7826087,70.173913 53.9130435,62.6086957 Z" id="Shape" fill="#FFF"></path>
                <path d="M7.47826087,73.7391304 C10.0869565,72.2608696 12.6086957,70.3478261 13.0434783,69.4782609 C13.5652174,68.6086957 13.9130435,61.2173913 13.9130435,53.0434783 C13.9130435,44.8695652 14.173913,38.173913 14.5217391,38.173913 C14.7826087,38.173913 20.8695652,41.5652174 28,45.6521739 C37.9130435,51.3913043 41.4782609,52.9565217 43.0434783,52.6086957 C46.0869565,51.826087 53.3043478,47.4782609 53.2173913,46.4347826 C53.1304348,45.9130435 42.3478261,39.3913043 29.2173913,31.826087 C11.5652174,21.6521739 4.7826087,18.173913 3.47826087,18.6086957 C1.73913043,19.1304348 1.73913043,19.7391304 1.73913043,47.826087 C1.73913043,63.5652174 2,76.4347826 2.26086957,76.4347826 C2.60869565,76.4347826 4.95652174,75.2173913 7.47826087,73.7391304 Z" id="Shape" fill="#FFF"></path>
                <path d="M43.0434783,84.6956522 C55.9130435,77.2173913 66.8695652,70.7826087 67.2173913,70.4347826 C68.2608696,69.3913043 58.6956522,64.2608696 55.7391304,64.2608696 C54.0869565,64.2608696 48.5217391,66.9565217 40.5217391,71.6521739 L27.826087,78.9565217 L27.826087,64.2608696 C27.826087,55.6521739 27.4782609,48.6956522 26.8695652,47.4782609 C26.0869565,45.826087 17.1304348,39.9130435 15.3043478,39.9130435 C14.3478261,39.9130435 14.6956522,94.6956522 15.6521739,96.5217391 C16.173913,97.3913043 17.3043478,98.173913 18.0869565,98.173913 C18.9565217,98.173913 30.173913,92.0869565 43.0434783,84.6956522 Z" id="Shape" fill="#FFF"></path>
                <path d="M6.95652174,105.826087 C9.56521739,104.26087 12.173913,102 12.7826087,100.782609 C13.826087,98.6956522 14.5217391,72.0869565 13.5652174,72.0869565 C12.173913,72.0869565 2.43478261,78.5217391 1.73913043,79.9130435 C0.695652174,81.826087 0.52173913,108.608696 1.56521739,108.608696 C1.91304348,108.608696 4.34782609,107.304348 6.95652174,105.826087 Z" id="Shape" fill="#FFF"></path>
            </g>
        </g>
    </g>
</svg>