<?xml version="1.0" encoding="UTF-8"?>
<svg width="500px" height="143px" viewBox="0 0 500 143" version="1.1" xmlns="http://www.w3.org/2000/svg" xmlns:xlink="http://www.w3.org/1999/xlink">
    <!-- Generator: Sketch 42 (36781) - http://www.bohemiancoding.com/sketch -->
    <title>Verge clor logo with white text</title>
    <desc>Created with Sketch.</desc>
    <defs></defs>
    <g id="Page-1" stroke="none" stroke-width="1" fill="none" fill-rule="evenodd">
        <g id="Group" transform="translate(250.000000, 71.328458) scale(-1, 1) rotate(-180.000000) translate(-250.000000, -71.328458) translate(0.000000, -0.171542)">
            <polygon id="Shape" fill="#F5F5F5" points="480.869565 23.4782609 480.869565 18.2608696 486.086957 18.2608696 491.304348 18.2608696 491.304348 23.4782609 491.304348 28.6956522 494.782609 28.6956522 498.26087 28.6956522 498.26087 14.3478261 498.26087 0 494.782609 0 491.304348 0 491.304348 6.08695652 491.304348 12.173913 486.086957 12.173913 480.869565 12.173913 480.869565 6.08695652 480.869565 0 477.391304 0 473.913043 0 473.913043 14.3478261 473.913043 28.6956522 477.391304 28.6956522 480.869565 28.6956522"></polygon>
            <path d="M465.217391,25.6521739 L465.217391,22.6086957 L460.869565,22.6086957 L456.521739,22.6086957 L456.521739,11.3043478 L456.521739,0 L453.043478,0 L449.565217,0 L449.565217,11.3043478 L449.565217,22.6086957 L445.652174,22.6086957 C441.73913,22.6086957 441.73913,22.6086957 441.73913,25.6521739 L441.73913,28.6956522 L453.478261,28.6956522 L465.217391,28.6956522 L465.217391,25.6521739 Z" id="Shape" fill="#F5F5F5"></path>
            <polygon id="Shape" fill="#F5F5F5" points="420.869565 17.3913043 420.869565 6.08695652 427.826087 6.08695652 434.782609 6.08695652 434.782609 3.04347826 434.782609 0 424.347826 0 413.913043 0 413.913043 14.3478261 413.913043 28.6956522 417.391304 28.6956522 420.869565 28.6956522"></polygon>
            <path d="M395.217391,27.2173913 C394.782609,28.2608696 393.652174,28.6956522 390.956522,28.6956522 L387.391304,28.6956522 L383.565217,18.4347826 C381.478261,12.8695652 379.043478,6.43478261 378.173913,4.17391304 L376.521739,-1.17061916e-12 L380.26087,-1.17061916e-12 C383.73913,-1.17061916e-12 384.086957,0.173913043 385.130435,3.04347826 L386.26087,6.17391304 L391.130435,5.91304348 C395.826087,5.65217391 396.086957,5.56521739 396.869565,2.86956522 C397.565217,0.173913043 397.913043,-1.17061916e-12 401.565217,-1.17061916e-12 C404.869565,-1.17061916e-12 405.304348,0.173913043 404.782609,1.56521739 C404.434783,2.34782609 402.26087,8.08695652 400,14.3478261 C397.73913,20.6086957 395.565217,26.3478261 395.217391,27.2173913 Z M389.304348,15.2173913 C390,17.3913043 390.695652,19.1304348 390.869565,19.1304348 C391.043478,19.1304348 391.73913,17.3913043 392.434783,15.2173913 L393.826087,11.3043478 L390.869565,11.3043478 L387.913043,11.3043478 L389.304348,15.2173913 Z" id="Combined-Shape" fill="#F5F5F5"></path>
            <polygon id="Shape" fill="#F5F5F5" points="367.826087 25.6521739 367.826087 22.6086957 360.434783 22.6086957 353.043478 22.6086957 353.043478 20 353.043478 17.3913043 360 17.3913043 366.956522 17.3913043 366.956522 14.7826087 366.956522 12.173913 360 12.173913 353.043478 12.173913 353.043478 9.13043478 353.043478 6.08695652 360.869565 6.08695652 368.695652 6.08695652 368.695652 3.04347826 368.695652 -2.21689334e-12 357.391304 -2.21689334e-12 346.086957 -2.21689334e-12 346.086957 14.3478261 346.086957 28.6956522 356.956522 28.6956522 367.826087 28.6956522"></polygon>
            <polygon id="Shape" fill="#F5F5F5" points="315.652174 23.4782609 315.652174 18.2608696 320.869565 18.2608696 326.086957 18.2608696 326.086957 23.4782609 326.086957 28.6956522 329.565217 28.6956522 333.043478 28.6956522 333.043478 14.3478261 333.043478 0 329.565217 0 326.086957 0 326.086957 6.08695652 326.086957 12.173913 320.869565 12.173913 315.652174 12.173913 315.652174 6.08695652 315.652174 0 312.173913 0 308.695652 0 308.695652 14.3478261 308.695652 28.6956522 312.173913 28.6956522 315.652174 28.6956522"></polygon>
            <path d="M27.826087,57.826087 C27.826087,54.7826087 27.3913043,51.3043478 26.8695652,50.173913 C26.2608696,48.8695652 21.7391304,45.6521739 14.4347826,41.4782609 C8.08695652,37.826087 2.60869565,34.7826087 2.34782609,34.7826087 C1.47826087,34.7826087 1.65217391,47.1304348 2.43478261,48.4347826 C3.04347826,49.3913043 25.9130435,63.2173913 27.2173913,63.3913043 C27.5652174,63.4782609 27.826087,60.9565217 27.826087,57.826087 Z" id="Shape" fill="#6BCABA"></path>
            <path d="M83.0434783,95.9130435 C89.4782609,92.173913 94.7826087,88.8695652 94.7826087,88.5217391 C94.7826087,87.3913043 85.3913043,82.6086957 83.0434783,82.6086957 C80,82.6086957 57.0434783,95.6521739 58.173913,96.7826087 C60,98.6086957 67.5652174,102.521739 69.3043478,102.521739 C70.4347826,102.608696 76.6086957,99.5652174 83.0434783,95.9130435 Z" id="Shape" fill="#F68D2E"></path>
            <path d="M53.9130435,96.6086957 C74.0869565,84.9565217 77.826087,82.4347826 78.0869565,80.6086957 C78.3478261,78.6956522 76.3478261,77.3043478 54.8695652,64.8695652 C41.9130435,57.3913043 30.7826087,51.0434783 30,50.7826087 C28.8695652,50.3478261 28.6956522,51.3043478 28.6956522,56.6956522 C28.6956522,64.6086957 28.3478261,64.2608696 44.5217391,73.4782609 C54.8695652,79.3913043 56.2608696,80.4347826 54.9565217,81.3043478 C54.173913,81.9130435 48.7826087,85.0434783 43.0434783,88.2608696 C28.5217391,96.5217391 28.6956522,96.3478261 28.6956522,104.086957 C28.6956522,107.565217 28.9565217,110.434783 29.3913043,110.434783 C29.7391304,110.434783 40.7826087,104.173913 53.9130435,96.6086957 Z" id="Shape" fill="#007398"></path>
            <path d="M7.47826087,107.73913 C10.0869565,106.26087 12.6086957,104.347826 13.0434783,103.478261 C13.5652174,102.608696 13.9130435,95.2173913 13.9130435,87.0434783 C13.9130435,78.8695652 14.173913,72.173913 14.5217391,72.173913 C14.7826087,72.173913 20.8695652,75.5652174 28,79.6521739 C37.9130435,85.3913043 41.4782609,86.9565217 43.0434783,86.6086957 C46.0869565,85.826087 53.3043478,81.4782609 53.2173913,80.4347826 C53.1304348,79.9130435 42.3478261,73.3913043 29.2173913,65.826087 C11.5652174,55.6521739 4.7826087,52.173913 3.47826087,52.6086957 C1.73913043,53.1304348 1.73913043,53.7391304 1.73913043,81.826087 C1.73913043,97.5652174 2,110.434783 2.26086957,110.434783 C2.60869565,110.434783 4.95652174,109.217391 7.47826087,107.73913 Z" id="Shape" fill="#F68D2E"></path>
            <polygon id="Shape" fill="#F5F5F5" points="500 126.956522 500 122.608696 479.565217 122.608696 459.130435 122.608696 459.130435 109.565217 459.130435 96.5217391 479.130435 96.5217391 499.130435 96.5217391 499.130435 91.7391304 499.130435 86.9565217 479.130435 86.9565217 459.130435 86.9565217 459.130435 70.4347826 459.130435 53.9130435 479.130435 53.9130435 499.130435 53.9130435 499.130435 49.5652174 499.130435 45.2173913 474.347826 45.2173913 449.565217 45.2173913 449.565217 88.2608696 449.565217 131.304348 474.782609 131.304348 500 131.304348"></polygon>
            <path d="M316.086957,129.304348 C313.217391,130.608696 309.478261,130.869565 293.73913,131.130435 L274.782609,131.478261 L274.782609,88.3478261 L274.782609,45.2173913 L279.565217,45.2173913 L284.347826,45.2173913 L284.347826,64.7826087 L284.347826,84.3478261 L286.434783,84.3478261 C288.173913,84.3478261 291.304348,80.8695652 303.652174,64.7826087 L318.695652,45.3043478 L324.608696,45.2173913 C327.913043,45.2173913 330.434783,45.5652174 330.26087,45.9130435 C330.173913,46.2608696 323.565217,54.9565217 315.652174,65.1304348 C307.73913,75.3043478 301.304348,83.9130435 301.304348,84.2608696 C301.304348,84.5217391 303.913043,85.0434783 307.043478,85.3913043 C316.956522,86.3478261 323.217391,90.173913 327.217391,97.826087 C329.913043,102.782609 329.913043,113.73913 327.217391,118.695652 C324.782609,123.217391 320.434783,127.304348 316.086957,129.304348 Z M284.347826,108.26087 L284.347826,122.869565 L296.347826,122.434783 C309.391304,122 313.217391,120.956522 316.347826,116.956522 C320.434783,111.73913 320.434783,104.782609 316.434783,99.6521739 C312.956522,95.2173913 310.173913,94.4347826 296.782609,94.0869565 L284.347826,93.7391304 L284.347826,108.26087 Z" id="Combined-Shape" fill="#F5F5F5"></path>
            <polygon id="Shape" fill="#F5F5F5" points="247.826087 126.956522 247.826087 122.608696 227.826087 122.608696 207.826087 122.608696 207.826087 109.565217 207.826087 96.5217391 227.826087 96.5217391 247.826087 96.5217391 247.826087 91.7391304 247.826087 86.9565217 227.826087 86.9565217 207.826087 86.9565217 207.826087 70.4347826 207.826087 53.9130435 227.826087 53.9130435 247.826087 53.9130435 247.826087 49.5652174 247.826087 45.2173913 223.043478 45.2173913 198.26087 45.2173913 198.26087 88.2608696 198.26087 131.304348 223.043478 131.304348 247.826087 131.304348"></polygon>
            <path d="M126.521739,98.7826087 L140.521739,66.2608696 L154.521739,98.6086957 L168.608696,130.869565 L173.826087,131.130435 C176.782609,131.304348 179.130435,131.043478 179.043478,130.695652 C179.043478,130.347826 170.695652,111.043478 160.608696,87.826087 C145.73913,53.826087 141.826087,45.5652174 140.434783,45.3913043 C138.956522,45.2173913 136.26087,50.7826087 120.347826,88.2608696 L101.913043,131.304348 L107.304348,131.304348 L112.608696,131.304348 L126.521739,98.7826087 Z" id="Shape" fill="#F5F5F5"></path>
            <path d="M43.0434783,118.695652 C55.9130435,111.217391 66.8695652,104.782609 67.2173913,104.434783 C68.2608696,103.391304 58.6956522,98.2608696 55.7391304,98.2608696 C54.0869565,98.2608696 48.5217391,100.956522 40.5217391,105.652174 L27.826087,112.956522 L27.826087,98.2608696 C27.826087,89.6521739 27.4782609,82.6956522 26.8695652,81.4782609 C26.0869565,79.826087 17.1304348,73.9130435 15.3043478,73.9130435 C14.3478261,73.9130435 14.6956522,128.695652 15.6521739,130.521739 C16.173913,131.391304 17.3043478,132.173913 18.0869565,132.173913 C18.9565217,132.173913 30.173913,126.086957 43.0434783,118.695652 Z" id="Shape" fill="#6BCABA"></path>
            <path d="M404.347826,131.391304 C410.521739,129.478261 418.26087,125.130435 424.173913,120.26087 L428,117.130435 L424.695652,113.826087 C422.869565,111.913043 421.043478,110.434783 420.695652,110.434783 C420.26087,110.434783 418,112 415.652174,113.826087 C404.173913,122.956522 389.826087,126.434783 378.173913,122.956522 C360.782609,117.73913 350.347826,104.782609 350.347826,88.3478261 C350.347826,66 371.304348,49.1304348 395.043478,52.3478261 C407.652174,54 418.521739,63.4782609 421.304348,75.0434783 L421.913043,77.3913043 L408.347826,77.3913043 L394.782609,77.3913043 L394.782609,82.173913 L394.782609,86.9565217 L413.478261,86.9565217 L432.173913,86.9565217 L432.173913,82.3478261 C432.173913,69.6521739 425.391304,56.6086957 415.304348,50 C401.652174,40.8695652 379.73913,40.2608696 364.086957,48.4347826 C327.043478,67.9130435 334.869565,123.304348 375.913043,132.695652 C383.130435,134.347826 396.869565,133.73913 404.347826,131.391304 Z" id="Shape" fill="#F5F5F5"></path>
            <path d="M6.95652174,139.826087 C9.56521739,138.26087 12.173913,136 12.7826087,134.782609 C13.826087,132.695652 14.5217391,106.086957 13.5652174,106.086957 C12.173913,106.086957 2.43478261,112.521739 1.73913043,113.913043 C0.695652174,115.826087 0.52173913,142.608696 1.56521739,142.608696 C1.91304348,142.608696 4.34782609,141.304348 6.95652174,139.826087 Z" id="Shape" fill="#007398"></path>
        </g>
    </g>
</svg>